<svg xmlns="http://www.w3.org/2000/svg" viewBox="0 0 32 32" width="32" height="32">
  <!-- Background -->
  <rect width="32" height="32" rx="4" fill="#0a0a0a"/>
  <!-- Folk art border dots -->
  <rect x="1" y="1" width="2" height="2" fill="#c0392b"/>
  <rect x="29" y="1" width="2" height="2" fill="#c0392b"/>
  <rect x="1" y="29" width="2" height="2" fill="#c0392b"/>
  <rect x="29" y="29" width="2" height="2" fill="#c0392b"/>
  <!-- Character head -->
  <rect x="13" y="5" width="6" height="6" fill="#e8c48a"/>
  <!-- Hat -->
  <rect x="12" y="4" width="8" height="2" fill="#8B6914"/>
  <rect x="11" y="3" width="10" height="2" fill="#d4a017"/>
  <!-- Body -->
  <rect x="12" y="11" width="8" height="5" fill="#c0392b"/>
  <!-- Laptop -->
  <rect x="10" y="14" width="12" height="7" fill="#2c3e50"/>
  <rect x="11" y="15" width="10" height="5" fill="#1a252f"/>
  <!-- AI chip on laptop -->
  <rect x="14" y="16" width="4" height="3" fill="#f39c12"/>
  <rect x="15" y="17" width="2" height="1" fill="#2c3e50"/>
  <!-- Candle flame (right) -->
  <rect x="24" y="9" width="2" height="3" fill="#f39c12"/>
  <rect x="24" y="8" width="2" height="2" fill="#e74c3c"/>
  <rect x="24" y="12" width="2" height="3" fill="#ecf0f1"/>
  <!-- Folk pattern bottom -->
  <rect x="4" y="26" width="2" height="2" fill="#27ae60"/>
  <rect x="8" y="26" width="2" height="2" fill="#c0392b"/>
  <rect x="12" y="26" width="2" height="2" fill="#27ae60"/>
  <rect x="16" y="26" width="2" height="2" fill="#c0392b"/>
  <rect x="20" y="26" width="2" height="2" fill="#27ae60"/>
  <rect x="24" y="26" width="2" height="2" fill="#c0392b"/>
</svg>
